<?xml version="1.0" encoding="UTF-8"?>
<svg xmlns="http://www.w3.org/2000/svg" width="520" height="600" viewBox="0 0 520 600">
<path d="M 260.00 50.00 L 43.49 175.00 L 43.49 425.00 L 260.00 550.00 L 476.51 425.00 L 476.51 175.00 Z" fill="#3D6B4C" stroke="#9C3E11" stroke-width="9"/>
<path d="M 119.89 134.04 L 120.88 136.65 L 121.87 139.24 L 122.85 141.82 L 123.84 144.37 L 124.83 146.91 L 125.81 149.42 L 126.80 151.92 L 127.79 154.40 L 128.77 156.87 L 129.76 159.31 L 130.75 161.74 L 131.73 164.14 L 132.72 166.53 L 133.71 168.90 L 134.69 171.25 L 135.68 173.59 L 136.67 175.90 L 137.65 178.20 L 138.64 180.48 L 139.63 182.73 L 140.61 184.98 L 141.60 187.20 L 142.59 189.40 L 143.57 191.59 L 144.56 193.76 L 145.55 195.90 L 146.53 198.03 L 147.52 200.15 L 148.51 202.24 L 149.49 204.32 L 150.48 206.37 L 151.47 208.41 L 152.45 210.43 L 153.44 212.43 L 154.43 214.41 L 155.41 216.38 L 156.40 218.32 L 157.39 220.25 L 158.37 222.16 L 159.36 224.05 L 160.35 225.92 L 161.33 227.78 L 162.32 229.61 L 163.31 231.43 L 164.29 233.23 L 165.28 235.01 L 166.27 236.77 L 167.25 238.51 L 168.24 240.24 L 169.23 241.94 L 170.21 243.63 L 171.20 245.30 L 172.19 246.95 L 173.17 248.58 L 174.16 250.20 L 175.15 251.79 L 176.13 253.37 L 177.12 254.93 L 178.11 256.47 L 179.09 257.99 L 180.08 259.49 L 181.07 260.98 L 182.05 262.44 L 183.04 263.89 L 184.03 265.32 L 185.01 266.73 L 186.00 268.12 L 186.99 269.50 L 187.97 270.85 L 188.96 272.19 L 189.95 273.51 L 190.93 274.81 L 191.92 276.09 L 192.91 277.36 L 193.89 278.60 L 194.88 279.83 L 195.87 281.04 L 196.85 282.23 L 197.84 283.40 L 198.83 284.55 L 199.81 285.68 L 200.80 286.80 L 201.79 287.90 L 202.77 288.98 L 203.76 290.04 L 204.75 291.08 L 205.73 292.10 L 206.72 293.11 L 207.71 294.09 L 208.69 295.06 L 209.68 296.01 L 210.67 296.94 L 211.65 297.86 L 212.64 298.75 L 213.63 299.63 L 214.61 300.49 L 215.60 301.32 L 216.59 302.15 L 217.57 302.95 L 218.56 303.73 L 219.55 304.50 L 220.53 305.24 L 221.52 305.97 L 222.51 306.68 L 223.49 307.37 L 224.48 308.05 L 225.47 308.70 L 226.45 309.34 L 227.44 309.96 L 228.43 310.56 L 229.41 311.14 L 230.40 311.70 L 231.39 312.24 L 232.37 312.77 L 233.36 313.28 L 234.35 313.77 L 235.33 314.24 L 236.32 314.69 L 237.31 315.12 L 238.29 315.54 L 239.28 315.93 L 240.27 316.31 L 241.25 316.67 L 242.24 317.01 L 243.23 317.33 L 244.21 317.64 L 245.20 317.92 L 246.19 318.19 L 247.17 318.44 L 248.16 318.67 L 249.15 318.88 L 250.13 319.08 L 251.12 319.25 L 252.11 319.41 L 253.09 319.55 L 254.08 319.67 L 255.07 319.77 L 256.05 319.85 L 257.04 319.92 L 258.03 319.96 L 259.01 319.99 L 260.00 320.00 L 260.99 319.99 L 261.97 319.96 L 262.96 319.92 L 263.95 319.85 L 264.93 319.77 L 265.92 319.67 L 266.91 319.55 L 267.89 319.41 L 268.88 319.25 L 269.87 319.08 L 270.85 318.88 L 271.84 318.67 L 272.83 318.44 L 273.81 318.19 L 274.80 317.92 L 275.79 317.64 L 276.77 317.33 L 277.76 317.01 L 278.75 316.67 L 279.73 316.31 L 280.72 315.93 L 281.71 315.54 L 282.69 315.12 L 283.68 314.69 L 284.67 314.24 L 285.65 313.77 L 286.64 313.28 L 287.63 312.77 L 288.61 312.24 L 289.60 311.70 L 290.59 311.14 L 291.57 310.56 L 292.56 309.96 L 293.55 309.34 L 294.53 308.70 L 295.52 308.05 L 296.51 307.37 L 297.49 306.68 L 298.48 305.97 L 299.47 305.24 L 300.45 304.50 L 301.44 303.73 L 302.43 302.95 L 303.41 302.15 L 304.40 301.32 L 305.39 300.49 L 306.37 299.63 L 307.36 298.75 L 308.35 297.86 L 309.33 296.94 L 310.32 296.01 L 311.31 295.06 L 312.29 294.09 L 313.28 293.11 L 314.27 292.10 L 315.25 291.08 L 316.24 290.04 L 317.23 288.98 L 318.21 287.90 L 319.20 286.80 L 320.19 285.68 L 321.17 284.55 L 322.16 283.40 L 323.15 282.23 L 324.13 281.04 L 325.12 279.83 L 326.11 278.60 L 327.09 277.36 L 328.08 276.09 L 329.07 274.81 L 330.05 273.51 L 331.04 272.19 L 332.03 270.85 L 333.01 269.50 L 334.00 268.12 L 334.99 266.73 L 335.97 265.32 L 336.96 263.89 L 337.95 262.44 L 338.93 260.98 L 339.92 259.49 L 340.91 257.99 L 341.89 256.47 L 342.88 254.93 L 343.87 253.37 L 344.85 251.79 L 345.84 250.20 L 346.83 248.58 L 347.81 246.95 L 348.80 245.30 L 349.79 243.63 L 350.77 241.94 L 351.76 240.24 L 352.75 238.51 L 353.73 236.77 L 354.72 235.01 L 355.71 233.23 L 356.69 231.43 L 357.68 229.61 L 358.67 227.78 L 359.65 225.92 L 360.64 224.05 L 361.63 222.16 L 362.61 220.25 L 363.60 218.32 L 364.59 216.38 L 365.57 214.41 L 366.56 212.43 L 367.55 210.43 L 368.53 208.41 L 369.52 206.37 L 370.51 204.32 L 371.49 202.24 L 372.48 200.15 L 373.47 198.03 L 374.45 195.90 L 375.44 193.76 L 376.43 191.59 L 377.41 189.40 L 378.40 187.20 L 379.39 184.98 L 380.37 182.73 L 381.36 180.48 L 382.35 178.20 L 383.33 175.90 L 384.32 173.59 L 385.31 171.25 L 386.29 168.90 L 387.28 166.53 L 388.27 164.14 L 389.25 161.74 L 390.24 159.31 L 391.23 156.87 L 392.21 154.40 L 393.20 151.92 L 394.19 149.42 L 395.17 146.91 L 396.16 144.37 L 397.15 141.82 L 398.13 139.24 L 399.12 136.65 L 400.11 134.04" fill="none" stroke="#F7F4D4" stroke-width="2.6" stroke-opacity="0.5" stroke-linecap="round" stroke-linejoin="round"/>
<path d="M 112.00 143.52 L 112.99 144.70 L 113.97 145.88 L 114.96 147.05 L 115.95 148.23 L 116.93 149.41 L 117.92 150.58 L 118.91 151.76 L 119.89 152.94 L 120.88 154.11 L 121.87 155.29 L 122.85 156.47 L 123.84 157.64 L 124.83 158.82 L 125.81 159.99 L 126.80 161.17 L 127.79 162.35 L 128.77 163.52 L 129.76 164.70 L 130.75 165.88 L 131.73 167.05 L 132.72 168.23 L 133.71 169.41 L 134.69 170.58 L 135.68 171.76 L 136.67 172.94 L 137.65 174.11 L 138.64 175.29 L 139.63 176.47 L 140.61 177.64 L 141.60 178.82 L 142.59 180.00 L 143.57 181.17 L 144.56 182.35 L 145.55 183.52 L 146.53 184.70 L 147.52 185.88 L 148.51 187.05 L 149.49 188.23 L 150.48 189.41 L 151.47 190.58 L 152.45 191.76 L 153.44 192.94 L 154.43 194.11 L 155.41 195.29 L 156.40 196.47 L 157.39 197.64 L 158.37 198.82 L 159.36 200.00 L 160.35 201.17 L 161.33 202.35 L 162.32 203.53 L 163.31 204.70 L 164.29 205.88 L 165.28 207.05 L 166.27 208.23 L 167.25 209.41 L 168.24 210.58 L 169.23 211.76 L 170.21 212.94 L 171.20 214.11 L 172.19 215.29 L 173.17 216.47 L 174.16 217.64 L 175.15 218.82 L 176.13 220.00 L 177.12 221.17 L 178.11 222.35 L 179.09 223.53 L 180.08 224.70 L 181.07 225.88 L 182.05 227.06 L 183.04 228.23 L 184.03 229.41 L 185.01 230.59 L 186.00 231.76 L 186.99 232.94 L 187.97 234.11 L 188.96 235.29 L 189.95 236.47 L 190.93 237.64 L 191.92 238.82 L 192.91 240.00 L 193.89 241.17 L 194.88 242.35 L 195.87 243.53 L 196.85 244.70 L 197.84 245.88 L 198.83 247.06 L 199.81 248.23 L 200.80 249.41 L 201.79 250.59 L 202.77 251.76 L 203.76 252.94 L 204.75 254.12 L 205.73 255.29 L 206.72 256.47 L 207.71 257.64 L 208.69 258.82 L 209.68 260.00 L 210.67 261.17 L 211.65 262.35 L 212.64 263.53 L 213.63 264.70 L 214.61 265.88 L 215.60 267.06 L 216.59 268.23 L 217.57 269.41 L 218.56 270.59 L 219.55 271.76 L 220.53 272.94 L 221.52 274.12 L 222.51 275.29 L 223.49 276.47 L 224.48 277.65 L 225.47 278.82 L 226.45 280.00 L 227.44 281.18 L 228.43 282.35 L 229.41 283.53 L 230.40 284.70 L 231.39 285.88 L 232.37 287.06 L 233.36 288.23 L 234.35 289.41 L 235.33 290.59 L 236.32 291.76 L 237.31 292.94 L 238.29 294.12 L 239.28 295.29 L 240.27 296.47 L 241.25 297.65 L 242.24 298.82 L 243.23 300.00 L 244.21 301.18 L 245.20 302.35 L 246.19 303.53 L 247.17 304.71 L 248.16 305.88 L 249.15 307.06 L 250.13 308.23 L 251.12 309.41 L 252.11 310.59 L 253.09 311.76 L 254.08 312.94 L 255.07 314.12 L 256.05 315.29 L 257.04 316.47 L 258.03 317.65 L 259.01 318.82 L 260.00 320.00 L 260.99 318.82 L 261.97 317.65 L 262.96 316.47 L 263.95 315.29 L 264.93 314.12 L 265.92 312.94 L 266.91 311.76 L 267.89 310.59 L 268.88 309.41 L 269.87 308.23 L 270.85 307.06 L 271.84 305.88 L 272.83 304.71 L 273.81 303.53 L 274.80 302.35 L 275.79 301.18 L 276.77 300.00 L 277.76 298.82 L 278.75 297.65 L 279.73 296.47 L 280.72 295.29 L 281.71 294.12 L 282.69 292.94 L 283.68 291.76 L 284.67 290.59 L 285.65 289.41 L 286.64 288.23 L 287.63 287.06 L 288.61 285.88 L 289.60 284.70 L 290.59 283.53 L 291.57 282.35 L 292.56 281.18 L 293.55 280.00 L 294.53 278.82 L 295.52 277.65 L 296.51 276.47 L 297.49 275.29 L 298.48 274.12 L 299.47 272.94 L 300.45 271.76 L 301.44 270.59 L 302.43 269.41 L 303.41 268.23 L 304.40 267.06 L 305.39 265.88 L 306.37 264.70 L 307.36 263.53 L 308.35 262.35 L 309.33 261.17 L 310.32 260.00 L 311.31 258.82 L 312.29 257.64 L 313.28 256.47 L 314.27 255.29 L 315.25 254.12 L 316.24 252.94 L 317.23 251.76 L 318.21 250.59 L 319.20 249.41 L 320.19 248.23 L 321.17 247.06 L 322.16 245.88 L 323.15 244.70 L 324.13 243.53 L 325.12 242.35 L 326.11 241.17 L 327.09 240.00 L 328.08 238.82 L 329.07 237.64 L 330.05 236.47 L 331.04 235.29 L 332.03 234.11 L 333.01 232.94 L 334.00 231.76 L 334.99 230.59 L 335.97 229.41 L 336.96 228.23 L 337.95 227.06 L 338.93 225.88 L 339.92 224.70 L 340.91 223.53 L 341.89 222.35 L 342.88 221.17 L 343.87 220.00 L 344.85 218.82 L 345.84 217.64 L 346.83 216.47 L 347.81 215.29 L 348.80 214.11 L 349.79 212.94 L 350.77 211.76 L 351.76 210.58 L 352.75 209.41 L 353.73 208.23 L 354.72 207.05 L 355.71 205.88 L 356.69 204.70 L 357.68 203.53 L 358.67 202.35 L 359.65 201.17 L 360.64 200.00 L 361.63 198.82 L 362.61 197.64 L 363.60 196.47 L 364.59 195.29 L 365.57 194.11 L 366.56 192.94 L 367.55 191.76 L 368.53 190.58 L 369.52 189.41 L 370.51 188.23 L 371.49 187.05 L 372.48 185.88 L 373.47 184.70 L 374.45 183.52 L 375.44 182.35 L 376.43 181.17 L 377.41 180.00 L 378.40 178.82 L 379.39 177.64 L 380.37 176.47 L 381.36 175.29 L 382.35 174.11 L 383.33 172.94 L 384.32 171.76 L 385.31 170.58 L 386.29 169.41 L 387.28 168.23 L 388.27 167.05 L 389.25 165.88 L 390.24 164.70 L 391.23 163.52 L 392.21 162.35 L 393.20 161.17 L 394.19 159.99 L 395.17 158.82 L 396.16 157.64 L 397.15 156.47 L 398.13 155.29 L 399.12 154.11 L 400.11 152.94 L 401.09 151.76 L 402.08 150.58 L 403.07 149.41 L 404.05 148.23 L 405.04 147.05 L 406.03 145.88 L 407.01 144.70 L 408.00 143.52" fill="none" stroke="#F7F4D4" stroke-width="3.8" stroke-opacity="0.7" stroke-linecap="round" stroke-linejoin="round"/>
<path d="M 112.00 196.13 L 112.99 196.13 L 113.97 196.13 L 114.96 196.13 L 115.95 196.13 L 116.93 196.13 L 117.92 196.13 L 118.91 196.13 L 119.89 196.13 L 120.88 196.13 L 121.87 196.13 L 122.85 196.13 L 123.84 196.13 L 124.83 196.13 L 125.81 196.13 L 126.80 196.13 L 127.79 196.13 L 128.77 196.13 L 129.76 196.13 L 130.75 196.13 L 131.73 196.13 L 132.72 196.13 L 133.71 196.13 L 134.69 196.13 L 135.68 196.13 L 136.67 196.13 L 137.65 196.13 L 138.64 196.13 L 139.63 196.13 L 140.61 196.13 L 141.60 196.13 L 142.59 196.13 L 143.57 196.13 L 144.56 196.13 L 145.55 196.13 L 146.53 196.13 L 147.52 196.13 L 148.51 196.13 L 149.49 196.13 L 150.48 196.13 L 151.47 196.13 L 152.45 196.13 L 153.44 196.13 L 154.43 196.13 L 155.41 196.13 L 156.40 196.13 L 157.39 196.13 L 158.37 196.13 L 159.36 196.14 L 160.35 196.17 L 161.33 196.23 L 162.32 196.31 L 163.31 196.42 L 164.29 196.55 L 165.28 196.71 L 166.27 196.89 L 167.25 197.10 L 168.24 197.34 L 169.23 197.60 L 170.21 197.88 L 171.20 198.19 L 172.19 198.53 L 173.17 198.89 L 174.16 199.28 L 175.15 199.69 L 176.13 200.13 L 177.12 200.59 L 178.11 201.08 L 179.09 201.59 L 180.08 202.13 L 181.07 202.69 L 182.05 203.28 L 183.04 203.90 L 184.03 204.54 L 185.01 205.20 L 186.00 205.89 L 186.99 206.61 L 187.97 207.35 L 188.96 208.11 L 189.95 208.90 L 190.93 209.72 L 191.92 210.56 L 192.91 211.43 L 193.89 212.32 L 194.88 213.24 L 195.87 214.18 L 196.85 215.15 L 197.84 216.15 L 198.83 217.16 L 199.81 218.21 L 200.80 219.28 L 201.79 220.37 L 202.77 221.49 L 203.76 222.64 L 204.75 223.81 L 205.73 225.01 L 206.72 226.23 L 207.71 227.48 L 208.69 228.75 L 209.68 230.04 L 210.67 231.37 L 211.65 232.72 L 212.64 234.09 L 213.63 235.49 L 214.61 236.91 L 215.60 238.36 L 216.59 239.83 L 217.57 241.33 L 218.56 242.86 L 219.55 244.41 L 220.53 245.99 L 221.52 247.59 L 222.51 249.21 L 223.49 250.86 L 224.48 252.54 L 225.47 254.24 L 226.45 255.97 L 227.44 257.72 L 228.43 259.50 L 229.41 261.31 L 230.40 263.13 L 231.39 264.99 L 232.37 266.87 L 233.36 268.76 L 234.35 270.66 L 235.33 272.56 L 236.32 274.46 L 237.31 276.36 L 238.29 278.25 L 239.28 280.15 L 240.27 282.05 L 241.25 283.95 L 242.24 285.84 L 243.23 287.74 L 244.21 289.64 L 245.20 291.54 L 246.19 293.43 L 247.17 295.33 L 248.16 297.23 L 249.15 299.13 L 250.13 301.02 L 251.12 302.92 L 252.11 304.82 L 253.09 306.72 L 254.08 308.61 L 255.07 310.51 L 256.05 312.41 L 257.04 314.31 L 258.03 316.20 L 259.01 318.10 L 260.00 320.00 L 260.99 318.10 L 261.97 316.20 L 262.96 314.31 L 263.95 312.41 L 264.93 310.51 L 265.92 308.61 L 266.91 306.72 L 267.89 304.82 L 268.88 302.92 L 269.87 301.02 L 270.85 299.13 L 271.84 297.23 L 272.83 295.33 L 273.81 293.43 L 274.80 291.54 L 275.79 289.64 L 276.77 287.74 L 277.76 285.84 L 278.75 283.95 L 279.73 282.05 L 280.72 280.15 L 281.71 278.25 L 282.69 276.36 L 283.68 274.46 L 284.67 272.56 L 285.65 270.66 L 286.64 268.76 L 287.63 266.87 L 288.61 264.99 L 289.60 263.13 L 290.59 261.31 L 291.57 259.50 L 292.56 257.72 L 293.55 255.97 L 294.53 254.24 L 295.52 252.54 L 296.51 250.86 L 297.49 249.21 L 298.48 247.59 L 299.47 245.99 L 300.45 244.41 L 301.44 242.86 L 302.43 241.33 L 303.41 239.83 L 304.40 238.36 L 305.39 236.91 L 306.37 235.49 L 307.36 234.09 L 308.35 232.72 L 309.33 231.37 L 310.32 230.04 L 311.31 228.75 L 312.29 227.48 L 313.28 226.23 L 314.27 225.01 L 315.25 223.81 L 316.24 222.64 L 317.23 221.49 L 318.21 220.37 L 319.20 219.28 L 320.19 218.21 L 321.17 217.16 L 322.16 216.15 L 323.15 215.15 L 324.13 214.18 L 325.12 213.24 L 326.11 212.32 L 327.09 211.43 L 328.08 210.56 L 329.07 209.72 L 330.05 208.90 L 331.04 208.11 L 332.03 207.35 L 333.01 206.61 L 334.00 205.89 L 334.99 205.20 L 335.97 204.54 L 336.96 203.90 L 337.95 203.28 L 338.93 202.69 L 339.92 202.13 L 340.91 201.59 L 341.89 201.08 L 342.88 200.59 L 343.87 200.13 L 344.85 199.69 L 345.84 199.28 L 346.83 198.89 L 347.81 198.53 L 348.80 198.19 L 349.79 197.88 L 350.77 197.60 L 351.76 197.34 L 352.75 197.10 L 353.73 196.89 L 354.72 196.71 L 355.71 196.55 L 356.69 196.42 L 357.68 196.31 L 358.67 196.23 L 359.65 196.17 L 360.64 196.14 L 361.63 196.13 L 362.61 196.13 L 363.60 196.13 L 364.59 196.13 L 365.57 196.13 L 366.56 196.13 L 367.55 196.13 L 368.53 196.13 L 369.52 196.13 L 370.51 196.13 L 371.49 196.13 L 372.48 196.13 L 373.47 196.13 L 374.45 196.13 L 375.44 196.13 L 376.43 196.13 L 377.41 196.13 L 378.40 196.13 L 379.39 196.13 L 380.37 196.13 L 381.36 196.13 L 382.35 196.13 L 383.33 196.13 L 384.32 196.13 L 385.31 196.13 L 386.29 196.13 L 387.28 196.13 L 388.27 196.13 L 389.25 196.13 L 390.24 196.13 L 391.23 196.13 L 392.21 196.13 L 393.20 196.13 L 394.19 196.13 L 395.17 196.13 L 396.16 196.13 L 397.15 196.13 L 398.13 196.13 L 399.12 196.13 L 400.11 196.13 L 401.09 196.13 L 402.08 196.13 L 403.07 196.13 L 404.05 196.13 L 405.04 196.13 L 406.03 196.13 L 407.01 196.13 L 408.00 196.13" fill="none" stroke="#F7F4D4" stroke-width="7.5" stroke-opacity="1.0" stroke-linecap="round" stroke-linejoin="round"/>
<path d="M 112.00 320.00 L 408.00 320.00" fill="none" stroke="#F7F4D4" stroke-width="3.0" stroke-opacity="0.8" stroke-linecap="butt" stroke-linejoin="round"/>
<text x="260" y="408" font-family="Courier New,Courier,monospace" font-size="46" font-weight="400" letter-spacing="0.5" text-anchor="middle" fill="#F7F4D4">penalties7</text>
</svg>
